<svg width="170" height="97" viewBox="0 0 170 97" fill="none" xmlns="http://www.w3.org/2000/svg">
<path d="M107.805 39.4884C107.469 39.7491 101.541 43.0925 101.541 50.5267C101.541 59.1256 109.085 62.1676 109.31 62.2429C109.276 62.4284 108.112 66.4091 105.333 70.4652C102.856 74.0345 100.268 77.598 96.3313 77.598C92.3947 77.598 91.3816 75.3093 86.8372 75.3093C82.4086 75.3093 80.834 77.6734 77.2332 77.6734C73.6324 77.6734 71.1199 74.3706 68.2312 70.3145C64.8851 65.5515 62.1816 58.1521 62.1816 51.1293C62.1816 39.865 69.499 33.891 76.7006 33.891C80.5272 33.891 83.7169 36.4058 86.1194 36.4058C88.4061 36.4058 91.9721 33.7404 96.3255 33.7404C97.9754 33.7404 103.903 33.891 107.805 39.4884ZM94.2588 28.9716C96.0592 26.8335 97.3328 23.8667 97.3328 20.9C97.3328 20.4886 97.298 20.0714 97.2228 19.7354C94.2935 19.8454 90.8085 21.6881 88.7071 24.1275C87.0572 26.0049 85.5173 28.9716 85.5173 31.9789C85.5173 32.4308 85.5926 32.8828 85.6273 33.0277C85.8126 33.0624 86.1136 33.103 86.4146 33.103C89.0429 33.103 92.3484 31.3415 94.2588 28.9716Z" fill="#151614"/>
</svg>
