<svg width="170" height="97" viewBox="0 0 170 97" fill="none" xmlns="http://www.w3.org/2000/svg">
<path fill-rule="evenodd" clip-rule="evenodd" d="M130.594 59.4269V42.8649H123.766V59.4269H130.594ZM94.4448 52.55V43.1155H87.8264V50.3275C87.8264 52.4236 87.7428 53.0114 87.6172 53.5565C87.1563 55.0664 85.5643 55.7358 83.9312 55.7358C81.6697 55.7358 80.6223 54.8556 80.2032 53.4721C80.0777 53.0121 80.0359 52.5088 79.994 52.0055C79.9522 51.4604 79.994 50.8726 79.994 50.2451V43.1162H73.292V52.5926C73.292 54.732 74.0047 56.3249 75.1769 57.4145C77.1873 59.3858 80.5805 59.9728 83.722 59.9728C87.5336 59.9728 90.4658 59.4276 92.5599 57.3734C93.6499 56.3242 94.4448 54.9407 94.4448 52.55ZM61.9401 51.3759C61.6083 51.3182 61.272 51.2904 60.9353 51.2929H53.3958C53.0185 51.2929 52.5994 51.3347 52.3902 51.3759C52.5157 51.2496 52.7675 50.999 53.0185 50.6632L56.411 45.0441C56.8719 44.2903 57.0811 43.787 57.1648 43.5776C57.2485 43.787 57.4577 44.2903 57.9186 45.0874L61.3955 50.7484C61.5636 50.999 61.8146 51.2496 61.9401 51.3759ZM74.5904 59.4269L59.5106 36.7859H51.0499L53.2695 39.4272C53.3114 39.4691 53.3958 39.5102 53.4787 39.5535C53.395 39.5954 53.3114 39.6366 53.2695 39.6785L40.1172 59.4269H47.7404L49.7933 56.0303C49.877 55.8628 49.9189 55.6946 49.9189 55.6115C50.0025 55.6115 50.2124 55.6946 50.4216 55.6946H64.0349C64.2441 55.6946 64.4115 55.6527 64.4951 55.6115C64.4875 55.7294 64.5167 55.8468 64.5788 55.9473L66.7155 59.4269H74.5904ZM121.924 50.9159C121.924 49.0704 121.169 46.9316 118.824 43.9545L113.169 36.7852H105.294L109.776 41.8165C110.53 42.6555 111.493 43.4094 111.493 43.4094C110.405 42.7798 109.023 42.5292 107.933 42.5292C105.336 42.5292 102.696 43.0743 100.352 44.3748C97.838 45.7568 96.1623 48.0638 96.1623 51.1253C96.1623 53.4728 97.2097 55.2765 98.55 56.66C101.567 59.6782 107.053 59.9721 109.064 59.9721C112.037 59.9721 116.687 59.3013 119.327 56.9113C120.877 55.4852 121.924 53.5154 121.924 50.9159ZM115.389 51.1253C115.389 52.8446 114.257 54.1436 112.833 54.8563C111.66 55.4859 110.278 55.6534 109.064 55.6534C107.85 55.6534 106.425 55.4014 105.252 54.8144C103.828 54.1017 102.738 52.7182 102.738 51.2084C102.738 49.4061 104.12 47.9793 105.755 47.2667C106.76 46.8067 107.975 46.6384 108.937 46.6384C109.86 46.6384 111.2 46.7634 112.248 47.1836C114.133 47.9793 115.389 49.4892 115.389 51.1253Z" fill="black"/>
</svg>
