<svg width="170" height="97" viewBox="0 0 170 97" fill="none" xmlns="http://www.w3.org/2000/svg">
<g clip-path="url(#clip0_3436_89385)">
<path fill-rule="evenodd" clip-rule="evenodd" d="M88.2365 48.2703H91.205L110.863 22.7441H110.863V74.4344H59.1729V22.7441H107.959L88.2365 48.2703ZM98.6699 59.6622C98.9329 60.3979 99.2773 61.4778 99.6515 62.6512C100.559 65.4978 101.643 68.895 102.165 69.265H97.2915C97.2768 68.6851 97.2001 68.1084 97.0627 67.5448C96.8526 66.7951 95.0896 61.1233 95.0896 61.1233H87.3477L86.1305 62.8489C86.1305 62.8489 87.5925 67.4255 87.6833 67.6498C87.8409 68.0541 88.539 69.265 88.539 69.265H83.868C83.868 69.265 83.7469 68.5661 83.7015 68.275C83.665 68.0399 83.259 66.7524 83.259 66.7524C83.259 66.7524 82.2003 67.9125 81.9118 68.4504C81.6206 68.9872 81.4915 69.265 81.4915 69.265H77.8374C77.8374 69.265 77.7154 68.5661 77.67 68.275C77.6344 68.0399 77.1874 66.6491 77.1874 66.6491C77.1874 66.6491 76.1644 67.8912 75.8732 68.428C75.5838 68.9659 75.4591 69.265 75.4591 69.265H71.8451C71.8451 69.265 72.8664 68.2927 73.2234 67.8751C73.8253 67.1673 76.0682 64.2361 76.0682 64.2361L75.1689 61.1233H67.4857C67.4857 61.1233 63.105 66.8797 62.9323 67.0578C62.7578 67.2332 61.4809 69.0656 61.4524 69.265H59.173V67.8155C59.2013 67.7847 59.2313 67.7556 59.2629 67.7283C59.3333 67.6766 62.5841 63.6413 65.5705 59.6622C68.2541 56.1923 70.7721 52.8177 70.993 52.4963C71.5281 51.719 72.2992 50.0407 72.2992 50.0407H76.2711C76.2711 50.0407 76.394 51.5846 76.5098 51.9594C76.5305 52.0257 76.6441 52.3973 76.8131 52.9498L76.8132 52.9503L76.8133 52.9507C77.488 55.1575 79.0446 60.2483 79.0901 60.3167L80.4284 58.6053L78.141 51.564C78.141 51.564 77.605 50.2392 77.4304 50.0407H82.0703C82.0539 50.4666 82.105 50.8923 82.2216 51.3023C82.4104 51.8829 83.405 55.472 83.405 55.472C83.405 55.472 86.5695 51.5053 86.7546 51.2204C86.9794 50.865 87.1137 50.46 87.1455 50.0407H91.0116C91.0116 50.0407 90.3038 50.5579 89.0634 52.1268C88.6467 52.6548 84.5642 57.8431 84.5642 57.8431C84.5642 57.8431 84.9205 59.0576 85.0941 59.6622L85.1195 59.7555C85.1527 59.877 85.1742 59.9557 85.1742 59.9658C85.1742 59.9712 85.2641 59.8608 85.419 59.6622C86.4724 58.3275 91.2636 52.0449 91.5539 51.5071C91.6261 51.373 91.7088 51.2333 91.7947 51.0884C91.987 50.7636 92.1949 50.4125 92.3347 50.0407H96.1064C96.1064 50.0407 96.1936 51.167 96.3085 51.4786L98.6699 59.6622ZM92.9304 53.7152C92.3766 54.9066 89.1168 58.8751 89.1168 58.8751H94.2793C94.2793 58.8751 93.2786 55.7934 93.104 55.0989C93.0149 54.6549 92.9808 54.2015 93.0025 53.7491C93.0025 53.6859 92.9909 53.5835 92.9304 53.7152ZM73.0951 53.7152C72.5413 54.9066 69.2816 58.8751 69.2816 58.8751H74.4441C74.4441 58.8751 73.4442 55.7934 73.2697 55.0989C73.1805 54.6549 73.1464 54.2015 73.1681 53.7491C73.1681 53.6859 73.1558 53.5835 73.0951 53.7152ZM80.8674 65.748L82.2885 63.7963C82.1576 63.6556 81.3571 61.2284 81.3571 61.2284L79.9832 63.0109L80.8674 65.748Z" fill="black"/>
</g>
<defs>
<clipPath id="clip0_3436_89385">
<rect width="51.6908" height="51.6908" fill="white" transform="translate(59.1729 22.7441)"/>
</clipPath>
</defs>
</svg>
