<svg width="170" height="97" viewBox="0 0 170 97" fill="none" xmlns="http://www.w3.org/2000/svg">
<path d="M36.9639 34.7783V62.493H64.5703V34.7783H36.9639ZM44.7022 40.9951H50.5778C52.3093 40.9951 53.6505 41.3371 54.6014 42.021C55.5523 42.6907 56.0277 43.6594 56.0277 44.9275C56.0277 45.6541 55.8573 46.2882 55.5167 46.8296C55.1761 47.3568 54.6723 47.7772 54.0053 48.0906C54.9278 48.3898 55.6303 48.8671 56.1128 49.5225C56.6096 50.1637 56.8579 50.9474 56.8579 51.8735C56.8579 52.7854 56.6167 53.569 56.1342 54.2244C55.6658 54.8798 54.9916 55.3856 54.1117 55.7418C53.2318 56.098 52.1745 56.2761 50.9398 56.2761H44.7022V40.9951ZM47.8741 43.4741V47.2784H50.2798C51.103 47.2784 51.7274 47.1075 52.1532 46.7656C52.5932 46.4094 52.8132 45.9178 52.8132 45.2908C52.8132 44.0798 51.9687 43.4741 50.2798 43.4741H47.8741ZM47.8741 49.6722V53.797H50.6416C51.5925 53.797 52.3236 53.6259 52.8345 53.284C53.3454 52.9278 53.6009 52.422 53.6009 51.7666C53.6009 50.3703 52.6286 49.6722 50.6843 49.6722H47.8741ZM105.98 34.7783V62.493H133.586V34.7783H105.98ZM120.917 40.6744C121.754 40.6744 122.542 40.7671 123.28 40.9523C124.032 41.1233 124.728 41.3797 125.366 41.7217V44.7566C124.784 44.3576 124.153 44.0584 123.472 43.8589C122.79 43.6452 122.074 43.5384 121.321 43.5384C120.285 43.5384 119.398 43.7377 118.66 44.1367C117.937 44.5356 117.376 45.1128 116.979 45.8679C116.595 46.6231 116.404 47.542 116.404 48.6249C116.404 49.7077 116.588 50.6339 116.957 51.4032C117.34 52.1584 117.887 52.7354 118.596 53.1343C119.32 53.5333 120.193 53.7328 121.215 53.7328C122.776 53.7328 124.217 53.3124 125.537 52.4718V55.4426C124.912 55.7988 124.188 56.0766 123.365 56.2761C122.542 56.4898 121.676 56.5966 120.768 56.5966C119.562 56.5966 118.476 56.4185 117.511 56.0623C116.546 55.6919 115.73 55.1647 115.063 54.4808C114.395 53.7969 113.885 52.9634 113.53 51.9803C113.175 50.983 112.998 49.8645 112.998 48.6249C112.998 47.4138 113.182 46.3237 113.551 45.3549C113.92 44.3718 114.452 43.5312 115.148 42.833C115.843 42.1349 116.673 41.6005 117.639 41.23C118.618 40.8596 119.711 40.6744 120.917 40.6744ZM71.4719 34.7783V62.493H99.0783V34.7783H71.4719ZM79.2101 40.9951H85.0858C86.8173 40.9951 88.1585 41.3371 89.1094 42.021C90.0603 42.6907 90.5357 43.6594 90.5357 44.9275C90.5357 45.6541 90.3653 46.2882 90.0247 46.8296C89.6841 47.3568 89.1803 47.7772 88.5133 48.0906C89.4358 48.3898 90.1383 48.8671 90.6208 49.5225C91.1176 50.1637 91.3659 50.9474 91.3659 51.8735C91.3659 52.7854 91.1247 53.569 90.6422 54.2244C90.1738 54.8798 89.4996 55.3856 88.6197 55.7418C87.7398 56.098 86.6825 56.2761 85.4478 56.2761H79.2101V40.9951ZM82.3821 43.4741V47.2784H84.7878C85.611 47.2784 86.2354 47.1075 86.6612 46.7656C87.1012 46.4094 87.3211 45.9178 87.3211 45.2908C87.3211 44.0798 86.4767 43.4741 84.7878 43.4741H82.3821ZM82.3821 49.6722V53.797H85.1496C86.1005 53.797 86.8315 53.6259 87.3425 53.284C87.8534 52.9278 88.1088 52.422 88.1088 51.7666C88.1088 50.3703 87.1366 49.6722 85.1922 49.6722H82.3821Z" fill="#151614"/>
</svg>
