<svg width="170" height="97" viewBox="0 0 170 97" fill="none" xmlns="http://www.w3.org/2000/svg">
<path d="M114.602 55.9057C114.593 55.8836 114.588 55.8599 114.587 55.834C114.588 55.8409 114.588 55.843 114.588 55.8471C114.611 56.093 114.676 56.5557 114.728 56.9018C114.81 56.7466 114.89 56.5816 114.976 56.4069C115.04 56.2744 115.008 56.2332 114.952 56.2122C114.79 56.1541 114.624 56.0321 114.602 55.9057L114.602 55.9057Z" fill="#151614"/>
<path d="M117.416 52.1785C117.44 52.4424 117.641 52.4745 117.805 52.2427C117.848 52.1785 117.898 52.1001 117.956 52.0115C117.91 51.9493 117.862 51.889 117.813 51.8273C117.584 51.5568 117.038 50.9727 116.511 50.5146C117.036 51.0128 117.356 51.621 117.416 52.1785Z" fill="#151614"/>
<path d="M106.891 34.0088C106.915 34.0428 106.936 34.079 106.958 34.1179C106.936 34.0762 106.915 34.0379 106.891 34.0088Z" fill="#151614"/>
<path d="M67.0338 31.7697C66.0387 31.7729 65.0386 31.8118 64.0317 31.8947C57.3434 32.4553 50.9776 36.2055 50.9657 41.8985C50.959 44.7851 53.0196 47.1246 56.2129 47.0213C59.9657 46.8954 63.0464 43.9014 64.659 40.1269C65.2715 38.6948 64.1374 38.0999 63.5984 38.9244C62.6358 40.41 61.2788 41.563 59.8115 42.2791C58.0455 43.1398 56.1585 42.9075 55.5868 41.4792C54.7823 39.4654 56.4545 36.4517 60.2705 35.0332C65.7818 33.0014 71.5491 34.3453 77.0981 35.3835C77.1773 35.3835 77.4726 35.5467 77.2109 35.6824C76.2171 36.2214 75.2395 36.6607 73.7147 37.9667C72.6223 38.8988 71.1917 40.1395 70.0851 41.491C68.987 42.8229 68.2082 44.0111 67.178 45.3278C67.0345 45.5179 66.8577 45.5094 66.8598 45.5094C64.3494 45.9315 61.8913 46.2143 59.6412 47.7728C59.176 48.0925 58.974 48.6599 59.2562 49.0949C59.5101 49.4797 60.0895 49.5208 60.4925 49.2287C61.8909 48.1874 63.3304 47.6971 64.9809 47.6519C65.0528 47.6562 65.0873 47.6685 65.1077 47.7122C65.1206 47.7374 65.1126 47.7896 65.0829 47.8286C62.6102 51.2445 61.9917 52.0161 60.1314 54.1342C59.1801 55.2226 58.2436 56.1414 57.1979 57.0974C52.9743 61.0051 48.4319 60.9376 46.8021 58.4872C45.8284 57.0174 45.9568 55.474 46.5948 54.1934C47.3804 52.6249 48.969 51.476 50.289 50.8047C50.7789 50.5555 50.9204 49.9311 50.4297 49.3625C50.1173 48.9916 49.3608 48.9261 48.7976 49.0288C47.0674 49.3469 45.0234 50.649 43.8154 52.2162C42.4544 53.9749 41.7743 56.1102 42.0024 58.5058C42.4124 62.8292 45.9873 65.3269 50.0456 65.2979C53.275 65.2727 56.3178 64.2988 59.9782 60.5983C63.3903 57.1472 66.4983 51.9925 69.4089 47.2123C69.5 47.0597 69.5655 46.9774 70.0074 46.9227C71.8334 46.6953 74.5286 46.4361 76.2567 46.3367C76.6409 46.3162 76.7183 46.3203 76.8726 46.5114C77.3231 47.0769 77.9987 47.5565 78.5405 47.8486C78.8042 47.9912 78.9302 48.0624 79.1374 48.0665C79.3933 48.0717 79.5923 47.9346 79.7208 47.7891C79.9042 47.589 79.9552 47.3274 79.8559 47.1589C79.7527 46.9819 78.5471 46.3163 78.5118 46.0473C78.485 45.8795 78.6699 45.8391 78.6699 45.8391C79.5554 45.5624 80.477 44.9935 81.0353 43.9286C81.5841 42.8793 81.6731 41.4799 80.6697 40.7017C79.7883 40.0183 78.4574 40.1263 77.3952 41.0752C76.357 41.997 76.0129 43.3368 76.1535 44.5119C76.1782 44.7152 76.1677 44.7845 75.889 44.8076C74.292 44.9348 72.753 44.9786 71.0424 45.069C70.9277 45.0772 70.8914 45.002 70.958 44.9232C72.9284 41.514 75.8703 39.0868 79.1246 36.6961C79.3402 36.535 79.2744 36.2288 79.2659 35.9729C85.1412 37.2442 90.8189 39.6102 96.9144 39.5598C99.4348 39.5393 101.848 39.1572 104.155 37.8972C106.184 36.7952 107.007 35.776 107.067 34.7172C107.115 33.985 106.603 33.5225 105.875 33.6797C99.7164 35.0892 93.8416 35.0733 87.7139 34.3346C80.7157 33.4891 73.9998 31.7478 67.0338 31.7697ZM79.3267 41.6485C79.4706 41.6563 79.6052 41.7043 79.7143 41.7972C80.0389 42.0732 79.8855 42.7623 79.5576 43.2394C79.1992 43.7653 78.5917 44.2199 78.0375 44.3304C77.9263 44.3509 77.8301 44.3038 77.7842 44.0584C77.6939 43.4094 77.9064 42.5396 78.6025 41.9274C78.8208 41.7351 79.0869 41.6357 79.3267 41.6485ZM128.769 41.7744C127.649 41.7744 126.18 41.7769 125.014 41.7769C124.735 41.7769 124.592 41.8109 124.46 42.0678C124.03 42.8897 118.782 50.7215 117.805 52.2425C117.64 52.4743 117.439 52.4421 117.416 52.1782C117.317 51.2748 116.534 50.2367 115.3 49.74C114.359 49.3598 113.439 49.291 112.483 49.4175C110.757 49.6482 109.219 50.5556 107.867 51.5777C105.829 53.1208 104.072 55.12 101.802 56.5973C100.563 57.4012 98.8665 58.1024 97.7313 57.0557C96.7039 56.1074 96.8197 54.0001 98.3915 52.3709C98.5574 52.2003 98.756 52.3428 98.7248 52.4962C98.5767 53.2333 98.759 53.9661 99.3204 54.48C100.006 55.0917 100.987 55.1613 101.827 54.7531C102.819 54.2639 103.401 53.3196 103.571 52.2477C103.834 50.5846 102.549 49.1177 100.94 49.0002C99.6338 48.909 98.3809 49.3616 97.16 50.3654C96.5483 50.8708 96.1999 51.2446 95.6709 51.9943C95.5419 52.1785 95.3437 52.1974 95.3499 51.9248C95.4113 49.7957 94.5266 48.598 92.7587 48.5587C91.3871 48.5266 89.9212 49.2672 88.7788 50.1744C87.5264 51.1759 86.4315 52.5033 85.2581 53.7505C85.112 53.9041 84.9844 53.8969 84.9436 53.5989C84.9083 52.1884 84.5517 50.8217 83.8961 49.8518C83.6641 49.5142 83.1764 49.3469 82.7661 49.5753C82.5767 49.6786 81.9171 49.9803 81.438 50.3652C81.1996 50.5604 81.1074 50.8428 81.2116 51.2053C81.845 53.3124 81.7055 55.7085 80.8474 57.7323C80.0592 59.5855 78.5268 61.2576 76.7261 61.8231C75.5398 62.1974 74.3062 62.0141 73.5432 60.9669C72.4949 59.5212 72.9181 57.0076 74.4801 54.9201C75.8594 53.0825 77.8533 51.9148 79.8428 51.163C80.0771 51.0731 80.1252 50.9236 80.0592 50.7255C79.9508 50.3992 79.779 49.9565 79.708 49.7538C79.5256 49.2705 79.0143 49.1915 78.391 49.2593C76.9456 49.4268 75.6419 49.92 74.3539 50.6065C70.9815 52.405 69.2903 55.8864 68.5488 57.7486C68.1922 58.6427 67.8869 59.2012 67.4925 59.696C66.9607 60.3615 66.2939 60.9669 65.073 62.0344C64.9628 62.1323 64.8806 62.3367 64.9732 62.5263C65.0978 62.7832 65.7325 63.6754 65.9115 63.7551C66.1104 63.8525 66.3412 63.7167 66.4333 63.6504C67.2875 63.0739 68.309 62.1605 68.8092 61.5408C68.9844 61.3286 69.1645 61.4177 69.2573 61.7399C69.7241 63.3978 70.9462 64.7513 72.6356 65.3173C75.7281 66.3561 78.9363 64.8525 81.3572 62.2357C82.8962 60.5726 83.4515 59.5029 84.0408 58.7758C85.0401 57.5423 87.0119 54.7833 89.36 53.0118C90.2212 52.3589 91.2406 51.8607 91.753 52.1914C92.1643 52.4563 92.2973 53.0737 91.6373 54.2689C89.2432 58.6226 85.7202 63.738 85.0741 64.9787C84.9562 65.1941 85.0588 65.3631 85.2851 65.3631C86.5377 65.3572 87.78 65.3599 88.9173 65.3599C89.1066 65.351 89.1916 65.2651 89.2863 65.132C91.1236 62.2678 92.8529 59.5414 94.7064 56.7231C94.8102 56.5571 94.9059 56.6856 94.91 56.7583C94.9482 57.4122 95.1096 58.3069 95.4992 58.8942C96.1997 59.9802 97.1928 60.4466 98.294 60.4536C99.1702 60.4636 99.6131 60.3309 100.558 59.9797C101.327 59.6958 101.944 59.3228 102.418 58.9857C102.694 58.7945 102.743 59.1148 102.736 59.1639C102.311 61.4377 102.836 64.1319 105.105 65.249C107.821 66.5822 110.805 64.7083 112.522 63.0164C112.689 62.8533 112.87 62.8705 112.887 63.2218C112.923 63.8677 113.216 64.6345 113.753 65.1709C115.192 66.6087 118.095 66.039 121.008 63.7934C122.879 62.3556 124.836 60.3245 126.604 58.1733C126.669 58.0905 126.718 57.9558 126.592 57.8209C126.323 57.5404 125.933 57.219 125.666 56.9716C125.544 56.8688 125.366 56.8986 125.263 56.9759C123.451 58.6922 121.819 60.6491 119.462 62.268C118.667 62.8204 117.4 63.2663 116.83 62.4994C116.609 62.2019 116.634 61.7892 116.852 61.2489C117.54 59.5411 128.424 43.0413 128.989 42.0678C129.085 41.8987 128.983 41.7744 128.769 41.7744ZM113.519 52.0904C113.804 52.0879 114.071 52.1425 114.314 52.2588C115.654 52.8958 115.226 54.4413 114.627 55.6547C114.582 55.7485 114.579 55.8281 114.603 55.9049C114.625 56.0314 114.79 56.1534 114.952 56.2115C115.009 56.2326 115.041 56.2737 114.976 56.4062C114.513 57.3939 114.088 57.9634 113.508 58.8213C112.975 59.6141 112.374 60.2328 111.646 60.8276C110.549 61.7323 109.024 62.7171 107.764 62.055C107.204 61.7654 106.962 60.9858 106.973 60.354C107.002 58.5782 107.793 56.7548 109.258 54.963C110.709 53.1842 112.284 52.1011 113.519 52.0904Z" fill="#151614"/>
</svg>
