<svg width="170" height="97" viewBox="0 0 170 97" fill="none" xmlns="http://www.w3.org/2000/svg">
<g clip-path="url(#clip0_3436_89433)">
<path d="M35.3714 52.9088H41.0402C42.1147 52.9088 43.1184 53.6936 43.1729 54.7337H43.2245V50.4597H35.3714L35.3676 42.9574H42.9445C44.0237 42.9574 45.0284 43.7393 45.0848 44.7765H45.1345L45.1269 40.4996L29.2266 40.5063V40.5531C30.2972 40.6115 31.1002 41.7452 31.1002 42.8044V62.4578C31.1002 63.5132 30.2972 64.6517 29.2266 64.7119V64.7578H37.2489V64.7119C36.1773 64.6517 35.3676 63.5132 35.3676 62.4578L35.3714 52.9088Z" fill="black"/>
<path d="M51.7884 58.2364C51.7884 60.7582 53.8915 62.9387 56.4869 62.9387C59.0794 62.9387 61.1902 60.7295 61.1902 58.2067V42.8045C61.1902 41.7453 60.3843 40.6115 59.3108 40.5532V40.5073L67.3389 40.4997V40.5532C66.2672 40.6115 65.4556 41.7453 65.4556 42.8045V57.7708C65.4556 62.5879 61.4617 65.3945 56.5079 65.3945C51.5456 65.3945 47.5086 62.5879 47.5086 57.7708L47.5191 42.8045C47.5191 41.7453 46.7094 40.6115 45.6436 40.5532V40.4997H53.6602V40.5532C52.5914 40.6172 51.7846 41.752 51.7846 42.8045L51.7884 58.2364Z" fill="black"/>
<path d="M117.381 44.4268C116.036 42.2597 112.966 42.5206 112.966 42.5206C107.946 42.5206 108.183 46.3397 108.183 46.3397C108.183 46.3397 107.838 48.2554 110.36 49.5622L115.38 52.2216C120.226 54.8142 119.651 58.4984 119.651 58.4984C119.651 58.4984 119.87 65.3812 109.736 65.3812C109.736 65.3812 106.792 65.4711 105.125 64.8478L103.698 60.3902H103.748C105.292 62.6099 109.777 62.9302 109.777 62.9302C115.472 62.6807 115.511 58.8225 115.511 58.8225C115.511 58.8225 115.767 57.161 113.538 55.9575L108.542 53.299C103.326 50.52 103.924 46.7775 103.924 46.7775C103.924 46.7775 103.801 40.0065 112.766 40.0065C112.766 40.0065 116.791 40.1097 117.432 40.7359V44.4268H117.381Z" fill="black"/>
<path d="M78.2651 32.0652C79.1542 32.9351 80.395 33.4695 81.7496 33.4695C84.4788 33.4695 86.688 31.3224 86.688 28.6687C86.688 26.0227 84.4788 23.8718 81.7496 23.8718C81.7496 23.8718 77.9477 23.5209 76.2366 28.251L76.2423 24.7006C77.5157 23.0802 79.4868 21.9025 81.7496 21.9025C85.6001 21.9025 88.7156 24.929 88.7156 28.6687C88.7156 32.4027 85.6001 35.4407 81.7496 35.4407C79.8262 35.4407 78.0864 34.6864 76.8293 33.4561L74.4337 30.8378C73.7769 30.2002 72.8736 29.812 71.8832 29.812C69.8881 29.812 68.2707 31.3798 68.2707 33.3166C68.2707 35.261 69.8881 36.8325 71.8832 36.8325C71.8832 36.8325 74.5512 37.1805 76.2366 33.9656L76.2423 36.8086C75.2099 38.0265 73.6335 38.8037 71.8832 38.8037C68.7687 38.8037 66.2393 36.3469 66.2393 33.3166C66.2393 30.2919 68.7687 27.8409 71.8832 27.8409C73.4347 27.8409 74.8438 28.4469 75.8666 29.4469L78.2651 32.0652Z" fill="black"/>
<path d="M79.5474 42.7536C79.5474 41.6935 78.7406 40.6075 77.6709 40.553V40.5071H85.6808V40.553C84.6178 40.6123 83.8071 41.6992 83.8071 42.7536V62.4491C83.8071 63.5064 84.6178 64.6439 85.6808 64.707V64.752H77.6709V64.707C78.7406 64.6439 79.5474 63.5064 79.5474 62.4491V42.7536Z" fill="black"/>
<path d="M74.52 42.8046C74.52 41.7454 75.3249 40.6117 76.3956 40.5534V40.5065H68.3733V40.5534C69.4468 40.6117 70.2479 41.7454 70.2479 42.8046L70.2546 67.427C70.2546 67.427 70.1647 71.7747 66.6621 74.2764L66.6707 74.3242C67.3619 74.2114 74.5258 72.8893 74.5258 65.9692L74.52 42.8046Z" fill="black"/>
<path d="M85.6523 44.8701H85.7001C86.7861 42.9802 88.4609 42.9582 88.4609 42.9582H92.8038L92.8067 62.4586C92.8067 63.514 91.9989 64.6439 90.9292 64.707V64.752H98.962V64.707C97.8837 64.6439 97.0731 63.5063 97.0731 62.4586L97.0788 42.9582L100.709 42.9496C101.811 42.9496 102.684 43.8042 102.715 44.8701H102.759L104.093 40.4995H86.9897L85.6523 44.8701Z" fill="black"/>
<path d="M125.628 58.2354C125.628 60.7572 127.731 62.9377 130.328 62.9377C132.917 62.9377 135.03 60.7285 135.03 58.2058V42.8035C135.03 41.7443 134.223 40.6105 133.154 40.5522V40.5063L141.177 40.4987V40.5522C140.113 40.6105 139.302 41.7443 139.302 42.8035V57.7698C139.302 62.5869 135.306 65.3936 130.345 65.3936C125.392 65.3936 121.354 62.5869 121.354 57.7698L121.36 42.8035C121.36 41.7443 120.552 40.6105 119.48 40.5522V40.4987H127.505V40.5522C126.43 40.6163 125.622 41.751 125.622 42.8035L125.628 58.2354Z" fill="black"/>
</g>
<defs>
<clipPath id="clip0_3436_89433">
<rect width="112.4" height="52.8705" fill="white" transform="translate(29 21.6797)"/>
</clipPath>
</defs>
</svg>
