<!-- sample rectangle -->
<svg x="0px" y="0px" viewBox="0 0 24 24"><path style="fill:#151614;" d="M12,5.94c-1.2,0-2.37,0.36-3.37,1.02c-1,0.67-1.77,1.61-2.23,2.72c-0.46,1.11-0.58,2.33-0.35,3.5 c0.23,1.18,0.81,2.26,1.66,3.1s1.93,1.43,3.1,1.66c1.18,0.23,2.4,0.11,3.5-0.35c1.11-0.46,2.06-1.24,2.72-2.23 c0.67-1,1.02-2.17,1.02-3.37c0-1.61-0.64-3.15-1.78-4.29C15.15,6.57,13.61,5.94,12,5.94z M14.78,14.78 c-0.74,0.74-1.74,1.15-2.78,1.15c-0.78,0-1.54-0.23-2.19-0.66c-0.65-0.43-1.15-1.05-1.45-1.77c-0.3-0.72-0.38-1.51-0.22-2.27 c0.15-0.76,0.53-1.46,1.08-2.02c0.55-0.55,1.25-0.93,2.02-1.08c0.76-0.15,1.55-0.07,2.27,0.22c0.72,0.3,1.33,0.8,1.77,1.45 s0.66,1.41,0.66,2.19C15.94,13.04,15.52,14.05,14.78,14.78z M18.3,4.28c-0.78,0-1.42,0.63-1.42,1.42s0.63,1.42,1.42,1.42 c0.78,0,1.42-0.63,1.42-1.42S19.09,4.28,18.3,4.28z M23.74,7.13c-0.06-1.26-0.26-2.12-0.55-2.87c-0.3-0.79-0.76-1.5-1.36-2.09 c-0.59-0.6-1.3-1.07-2.09-1.36c-0.75-0.29-1.61-0.49-2.87-0.55C15.61,0.2,15.21,0.19,12,0.19c-3.21,0-3.61,0.01-4.87,0.07 C5.87,0.32,5.02,0.52,4.26,0.81c-0.79,0.3-1.5,0.76-2.09,1.36c-0.6,0.59-1.07,1.3-1.36,2.09C0.52,5.02,0.32,5.87,0.26,7.13 C0.2,8.39,0.19,8.79,0.19,12s0.01,3.61,0.07,4.87c0.06,1.26,0.26,2.12,0.55,2.87c0.3,0.79,0.76,1.5,1.36,2.09 c0.59,0.6,1.3,1.07,2.09,1.36c0.75,0.29,1.61,0.49,2.87,0.55c1.26,0.06,1.66,0.07,4.87,0.07c3.21,0,3.61-0.01,4.87-0.07 c1.26-0.06,2.12-0.26,2.87-0.55c0.78-0.3,1.5-0.77,2.09-1.36c0.59-0.59,1.06-1.31,1.36-2.09c0.29-0.75,0.49-1.61,0.55-2.87 c0.06-1.26,0.07-1.66,0.07-4.87S23.8,8.39,23.74,7.13z M21.61,16.77c-0.05,1.15-0.24,1.78-0.41,2.19c-0.2,0.51-0.5,0.97-0.88,1.36 c-0.39,0.39-0.85,0.69-1.36,0.88c-0.42,0.16-1.04,0.35-2.19,0.41c-1.24,0.06-1.62,0.07-4.77,0.07c-3.15,0-3.53-0.01-4.77-0.07 c-1.15-0.05-1.78-0.24-2.19-0.41c-0.51-0.19-0.98-0.49-1.36-0.88c-0.39-0.38-0.69-0.84-0.88-1.36c-0.16-0.42-0.35-1.04-0.41-2.19 C2.33,15.53,2.32,15.15,2.32,12c0-3.15,0.01-3.53,0.07-4.77c0.05-1.15,0.24-1.78,0.41-2.19c0.19-0.51,0.49-0.98,0.88-1.36 c0.38-0.39,0.84-0.69,1.36-0.88c0.42-0.16,1.04-0.35,2.19-0.41C8.47,2.33,8.85,2.32,12,2.32l0,0c3.15,0,3.53,0.01,4.77,0.07 c1.15,0.05,1.78,0.24,2.19,0.41c0.51,0.19,0.98,0.49,1.36,0.88c0.39,0.38,0.69,0.84,0.88,1.36c0.16,0.42,0.35,1.04,0.41,2.19 c0.06,1.25,0.07,1.62,0.07,4.77C21.68,15.15,21.67,15.53,21.61,16.77z"></path></svg>