<!-- sample rectangle -->
<svg x="0px" y="0px" viewBox="0 0 24 24"><path style="fill:#151614;" d="M21.33,0H2.67C1.19,0,0,1.19,0,2.67v18.67C0,22.81,1.19,24,2.67,24h18.67c1.47,0,2.67-1.19,2.67-2.67 V2.67C24,1.19,22.81,0,21.33,0z M7.26,20.67H3.68V9.11h3.58V20.67z M5.45,7.6c-1.17,0-2.12-0.95-2.12-2.13s0.95-2.13,2.12-2.13 c1.17,0,2.12,0.95,2.12,2.13S6.62,7.6,5.45,7.6z M20.67,20.67h-3.56V14.6c0-1.66-0.63-2.59-1.95-2.59c-1.43,0-2.18,0.97-2.18,2.59 v6.07H9.54V9.11h3.43v1.56c0,0,1.03-1.91,3.48-1.91c2.45,0,4.21,1.5,4.21,4.59V20.67z"></path></svg>