<svg width="170" height="97" viewBox="0 0 170 97" fill="none" xmlns="http://www.w3.org/2000/svg">
<path d="M54.8895 62.8768C52.5247 62.7835 50.5899 62.1404 49.0771 60.9461C48.7884 60.718 48.1004 60.0339 47.8696 59.7454C47.2561 58.9788 46.8391 58.2327 46.5609 57.405C45.7049 54.857 46.1454 51.5135 47.821 47.844C49.2557 44.7025 51.4694 41.5867 55.3317 37.2714C55.9006 36.6364 57.5948 34.7793 57.6058 34.7793C57.6098 34.7793 57.5175 34.9382 57.4013 35.1318C56.397 36.8034 55.5378 38.7723 55.0697 40.4769C54.3177 43.212 54.4084 45.5592 55.3353 47.3792C55.9747 48.6331 57.0708 49.7192 58.3035 50.3196C60.4613 51.3702 63.6206 51.4571 67.4788 50.5739C67.7444 50.5127 80.9071 47.0404 96.7293 42.8575C112.552 38.6741 125.499 35.2541 125.501 35.2569C125.506 35.2606 88.7417 50.8938 69.6569 59.0041C66.6345 60.2882 65.8263 60.6125 64.4054 61.1083C60.7731 62.3758 57.5195 62.9807 54.8895 62.8768Z" fill="black"/>
</svg>
