<svg width="170" height="97" viewBox="0 0 170 97" fill="none" xmlns="http://www.w3.org/2000/svg">
<path d="M90.936 51.4093C90.8788 51.4236 90.6501 51.4236 90.55 51.4236H83.174V53.1457H90.6787C90.7358 53.1457 91.179 53.1457 91.2647 53.1313C92.7943 52.9878 93.4947 51.7106 93.4947 50.5913C93.4947 49.4432 92.7657 48.209 91.3791 48.0799C91.1075 48.0512 90.8788 48.0512 90.7787 48.0512H85.8757C85.6613 48.0512 85.4183 48.0368 85.3325 48.0081C84.9465 47.9077 84.8036 47.5633 84.8036 47.2762C84.8036 47.0179 84.9465 46.6735 85.3468 46.5587C85.4612 46.53 85.5898 46.5157 85.8614 46.5157H92.9372V44.8223H85.747C85.4469 44.8223 85.2181 44.8366 85.0323 44.8653C83.803 45.0375 82.9453 46.0277 82.9453 47.2906C82.9453 48.3238 83.5886 49.5293 85.0037 49.7302C85.261 49.7589 85.6184 49.7589 85.7756 49.7589H90.55C90.6358 49.7589 90.8502 49.7589 90.8931 49.7733C91.4363 49.845 91.6221 50.2468 91.6221 50.6056C91.6221 50.95 91.4077 51.3231 90.936 51.4093Z" fill="black"/>
<path d="M76.9545 51.4093C76.8973 51.4236 76.6686 51.4236 76.5829 51.4236H69.1926V53.1457H76.6972C76.7544 53.1457 77.1975 53.1457 77.2833 53.1313C78.8128 52.9878 79.5132 51.7106 79.5132 50.5913C79.5132 49.4432 78.7842 48.209 77.3977 48.0799C77.1261 48.0512 76.8973 48.0512 76.7973 48.0512H71.8942C71.6798 48.0512 71.4368 48.0368 71.3511 48.0081C70.9651 47.9077 70.8222 47.5633 70.8222 47.2762C70.8222 47.0179 70.9651 46.6735 71.3654 46.5587C71.4797 46.53 71.6084 46.5157 71.88 46.5157H78.9558V44.8223H71.7656C71.4654 44.8223 71.2367 44.8366 71.0509 44.8653C69.8215 45.0375 68.9639 46.0277 68.9639 47.2906C68.9639 48.3238 69.6071 49.5293 71.0223 49.7302C71.2796 49.7589 71.6369 49.7589 71.7942 49.7589H76.5686C76.6543 49.7589 76.8688 49.7589 76.9116 49.7733C77.4548 49.845 77.6407 50.2468 77.6407 50.6056C77.6407 50.95 77.4405 51.3231 76.9545 51.4093Z" fill="black"/>
<path d="M65.3485 44.7646H63.4902V53.1885H65.3485V44.7646Z" fill="black"/>
<path d="M59.3872 53.1885V44.7646H57.5289V51.0503L51.3393 44.7646H48.9521V53.1885H50.8104V46.8742L57.0429 53.1885H59.3872Z" fill="black"/>
<path d="M119.154 44.7646V51.0503L112.964 44.7646H110.577V53.1885H112.435V46.8742L118.654 53.1885H120.998V44.7646H119.154Z" fill="black"/>
<path d="M100.898 44.7646L95.666 53.1885H97.9246L98.8537 51.6817H104.957L105.887 53.1885H108.131L102.899 44.7646H100.898ZM104 50.0888H99.8114L101.913 46.702L104 50.0888Z" fill="black"/>
<path d="M59.2868 39.9859C63.0319 29.0076 73.3526 21.6313 84.9884 21.6313C96.6241 21.6313 106.959 29.0076 110.69 39.9859L110.719 40.072H118.909V39.0818L115.507 38.68C113.406 38.436 112.963 37.5032 112.391 36.3264L112.248 36.0394C107.331 25.5347 96.6241 18.7324 84.9884 18.7324C73.3383 18.7324 62.646 25.5347 57.7286 36.0681L57.5857 36.3551C57.0139 37.5319 56.5708 38.4647 54.4695 38.7087L51.0674 39.1105V40.1007H59.2439L59.2868 39.9859Z" fill="black"/>
<path d="M110.719 57.8952L110.69 57.9813C106.945 68.9596 96.6245 76.3216 84.9887 76.3216C73.3529 76.3216 63.018 68.9453 59.2871 57.967L59.2585 57.8809H51.082V58.8711L54.4841 59.2729C56.5854 59.5168 57.0286 60.4496 57.6003 61.6264L57.7433 61.9134C62.6606 72.4469 73.3672 79.2491 85.003 79.2491C96.6388 79.2491 107.345 72.4469 112.263 61.9278L112.406 61.6408C112.977 60.464 113.421 59.5312 115.522 59.2872L118.924 58.8854V57.8952H110.719Z" fill="black"/>
</svg>
