<svg width="170" height="97" viewBox="0 0 170 97" fill="none" xmlns="http://www.w3.org/2000/svg">
<path d="M125.804 36.9477L125.72 36.7988L123.788 40.2463L130.318 51.7796H117.254L112.529 60.1595L116.424 60.16L119.272 55.1172H132.166L135.019 60.16L138.911 60.1595L125.804 36.9477Z" fill="#151614"/>
<path d="M109.474 37.5527H105.934V60.1589H109.474V37.5527Z" fill="#151614"/>
<path d="M88.2801 48.8559L101.638 37.5527H96.3914L83.1202 48.7825L83.0332 48.8559L96.3645 60.1363L96.3914 60.1591H101.64L88.2801 48.8559Z" fill="#151614"/>
<path d="M79.4878 44.2672C78.9068 42.8745 78.0222 41.6047 76.8584 40.4929C75.6947 39.3818 74.3652 38.5359 72.9067 37.9788C71.4493 37.4222 69.8232 37.1386 68.0734 37.1357C68.065 37.1357 68.0567 37.1357 68.0483 37.1357C66.3082 37.1357 64.6945 37.4143 63.2517 37.9639C61.8007 38.5166 60.4827 39.3587 59.3341 40.4664C58.1855 41.5745 57.3112 42.847 56.7353 44.249C56.16 45.6499 55.8668 47.2187 55.8643 48.9116C55.8617 50.5618 56.1479 52.0954 56.7153 53.4702C57.2829 54.8457 58.1473 56.0998 59.2843 57.1978C60.4213 58.2955 61.7196 59.1311 63.1431 59.6815C64.5656 60.2314 66.1524 60.5118 67.8593 60.5143C67.8683 60.5143 67.877 60.5143 67.8858 60.5143C69.6625 60.5143 71.3117 60.2394 72.7871 59.6969C74.2715 59.1511 75.6213 58.3199 76.7994 57.226C77.9777 56.1316 78.875 54.8747 79.4657 53.4899C80.0562 52.1059 80.3568 50.5566 80.3593 48.8849C80.3619 47.2136 80.0685 45.6599 79.4875 44.2672H79.4878ZM74.3241 54.9065C73.4928 55.7175 72.5458 56.3336 71.5099 56.738C70.4781 57.1408 69.3283 57.3449 68.0919 57.3449C68.0863 57.3449 68.0804 57.3449 68.0747 57.3449C66.8371 57.3431 65.688 57.1392 64.659 56.7392C63.6311 56.3398 62.6936 55.7326 61.8728 54.9353C61.0524 54.1381 60.4288 53.2281 60.0198 52.2304C59.6106 51.2323 59.4042 50.1176 59.406 48.9169C59.4078 47.6785 59.6173 46.5353 60.0283 45.5198C60.439 44.5049 61.0631 43.5874 61.8834 42.7929C62.7038 41.998 63.6504 41.3942 64.6968 40.9979C65.7393 40.603 66.911 40.4028 68.1792 40.4028C68.1854 40.4028 68.1915 40.4028 68.1977 40.4028C69.4081 40.4046 70.5387 40.6102 71.5582 41.014C72.5771 41.4176 73.5139 42.0307 74.3428 42.8365C75.1713 43.6421 75.8005 44.5529 76.2136 45.5439C76.6269 46.5353 76.8356 47.6359 76.8338 48.8145C76.8328 49.4029 76.7824 49.9757 76.6836 50.5168C76.3761 52.2014 75.582 53.6784 74.3238 54.9065H74.3241Z" fill="#151614"/>
<path d="M32.0938 36.7852V60.1596H35.7063L35.7066 44.6999L54.3225 60.7183L54.4817 60.8554V56.0167L32.0938 36.7852Z" fill="#151614"/>
</svg>
