<svg width="170" height="97" viewBox="0 0 170 97" fill="none" xmlns="http://www.w3.org/2000/svg">
<path d="M63.0761 36.993C61.9167 36.993 60.7577 37.0407 59.6665 37.1606C54.5517 37.7251 51.9492 40.8136 51.9492 44.5024C51.9492 47.5372 54.1466 50.3972 58.2602 51.1904L63.2179 52.1437C65.0281 52.4968 65.9599 52.9028 65.9599 53.891C65.9599 54.6498 65.2566 55.4446 62.9191 55.4446C60.8092 55.4446 57.9622 55.1267 56.1505 55.1267C54.411 55.1267 52.5652 55.9213 52.5652 59.3621C52.5652 59.7858 52.6356 60.3154 52.7233 60.7384C55.3249 61.0394 60.7925 61.516 64.5713 61.1093C69.7923 60.5448 72.3592 57.6678 72.3592 53.7146C72.3592 50.3089 70.2671 47.5376 65.4156 46.638L60.6863 45.7555C59.1743 45.4912 58.2256 45.1373 58.2256 44.2728C58.2256 43.4616 59.2271 42.7907 61.6367 42.7907C64.0092 42.7907 66.0835 43.038 67.4194 43.038C69.1599 43.038 70.9706 42.2961 70.9706 38.8555C70.9706 38.3967 70.9172 37.9722 70.8303 37.532C68.9749 37.3032 66.0254 36.9935 63.0787 36.9935H63.0761V36.993ZM89.0616 39.8254L81.1512 48.5086L87.5141 58.5682C88.6922 60.4033 90.2397 61.3378 92.7538 61.3378C94.4051 61.3378 95.7768 60.9506 96.4088 60.6512L88.7447 49.0553L94.1773 43.2669L103.09 57.3153L97.6566 68.8039C98.2026 69.0854 99.3095 69.4214 100.698 69.4563C103.09 69.5091 104.39 68.5917 105.357 66.4385L118.173 37.743C117.646 37.4609 116.468 37.1434 115.518 37.1257C113.866 37.0906 111.651 37.426 110.244 40.8138L106.096 50.644L97.957 37.3375C97.4296 37.1781 96.1453 36.9495 95.2136 36.9495C92.3311 36.9491 90.7317 38.0075 89.0616 39.8254ZM74.4273 33.1195V61.1804C74.8843 61.2498 75.3591 61.2855 75.9042 61.2855C80.0171 61.2855 80.8442 60.0679 80.8442 57.9498V28.9192C80.351 28.8128 79.8234 28.7598 79.296 28.7598C75.1475 28.7598 74.4273 30.9843 74.4273 33.1195Z" fill="#151614"/>
</svg>
