<svg width="170" height="97" viewBox="0 0 170 97" fill="none" xmlns="http://www.w3.org/2000/svg">
<path d="M85.6551 75.0013C70.9685 75.0013 58.9362 62.91 58.9362 48.2234C58.9362 44.9204 59.526 41.7944 60.6467 38.8453L76.2769 70.2827C76.4539 70.6956 76.7488 71.0495 77.2206 71.0495C77.6925 71.0495 77.9874 70.6956 78.1644 70.2827L85.3602 54.1806C85.4191 54.0037 85.5371 53.8267 85.7141 53.8267C85.891 53.8267 85.95 54.0037 86.0679 54.1806L93.2638 70.2827C93.4407 70.6956 93.7356 71.0495 94.2075 71.0495C94.6793 71.0495 94.9742 70.6956 95.1512 70.2827L110.781 38.8453C111.902 41.7944 112.492 44.9204 112.492 48.2234C112.374 62.91 100.342 75.0013 85.6551 75.0013ZM85.6551 42.1483C85.4781 42.1483 85.4191 41.9713 85.3012 41.7944L76.9257 22.9201C79.6389 21.9174 82.588 21.3866 85.6551 21.3866C88.7221 21.3866 91.6712 21.9174 94.3844 22.9201L86.009 41.7944C85.891 42.0303 85.832 42.1483 85.6551 42.1483ZM77.1027 61.5534C76.9257 61.5534 76.8668 61.3764 76.7488 61.1995L63.1829 33.8318C65.6012 30.116 68.8452 26.9899 72.797 24.8076L82.588 46.5719C82.706 46.9258 83.0009 47.0438 83.2958 47.0438H88.0144C88.3682 47.0438 88.6042 46.9848 88.7811 46.5719L98.5721 24.8076C102.465 26.9899 105.768 30.116 108.186 33.8318L94.5024 61.1995C94.4434 61.3764 94.3254 61.5534 94.1485 61.5534C93.9715 61.5534 93.9126 61.3764 93.7946 61.1995L88.6632 49.521C88.4862 49.1082 88.2503 49.0492 87.8964 49.0492H83.1778C82.8239 49.0492 82.588 49.1082 82.4111 49.521L77.4566 61.1995C77.3976 61.3764 77.2796 61.5534 77.1027 61.5534ZM85.6551 77.7144C101.993 77.7144 115.146 64.5615 115.146 48.2234C115.146 31.8854 101.993 18.7324 85.6551 18.7324C69.3171 18.7324 56.1641 31.8854 56.1641 48.2234C56.1641 64.5615 69.3171 77.7144 85.6551 77.7144Z" fill="#151614"/>
</svg>
