<!-- sample rectangle -->
<svg x="0px" y="0px" viewBox="0 0 24 24"><path style="fill:#151614;" d="M17.76,15.26c-3.08-4.49-3.49-5.09-3.48-5.12c0.01-0.03,0.43-0.52,3.19-3.73 c0.47-0.55,1.13-1.31,1.45-1.69s0.65-0.76,0.73-0.85c0.08-0.09,0.48-0.55,0.89-1.03c0.41-0.48,1.11-1.29,1.56-1.81 c0.44-0.52,0.82-0.96,0.84-0.98C22.97,0,22.91,0,21.94,0H20.9l-0.46,0.54c-0.61,0.71-1.72,2-2.03,2.36 c-0.14,0.16-0.31,0.36-0.38,0.45c-0.07,0.09-0.22,0.25-0.32,0.37c-0.1,0.12-0.62,0.72-1.15,1.34s-0.97,1.13-0.98,1.14 c-0.01,0.01-0.12,0.14-0.25,0.29c-0.23,0.27-0.46,0.54-1.52,1.77c-0.47,0.54-0.49,0.56-0.53,0.51c-0.02-0.03-1.39-2.01-3.03-4.4 L7.27,0l-3.5,0l-3.5,0l0.14,0.2C0.5,0.32,2.33,2.98,4.49,6.12s4.15,6.04,4.43,6.45c0.28,0.41,0.51,0.75,0.51,0.76 s-0.1,0.14-0.23,0.29c-0.13,0.15-0.49,0.57-0.8,0.93c-0.31,0.36-0.84,0.98-1.17,1.36s-0.91,1.06-1.3,1.51 c-0.38,0.44-1.07,1.24-1.52,1.77c-1.41,1.64-1.62,1.88-2.69,3.13c-0.57,0.67-1.12,1.31-1.22,1.42c-0.1,0.11-0.18,0.22-0.18,0.23 c0,0.02,0.36,0.03,1.02,0.03h1.02l1.12-1.3c0.61-0.72,1.22-1.42,1.35-1.57c0.27-0.31,2.36-2.74,2.53-2.95 c0.07-0.08,0.16-0.19,0.22-0.25c0.05-0.06,0.46-0.53,0.91-1.06c0.45-0.52,0.83-0.96,0.84-0.98c0.02-0.02,0.25-0.29,0.53-0.61 s0.51-0.59,0.52-0.59s1.43,2.05,3.14,4.55s3.16,4.6,3.19,4.65l0.07,0.1l3.49,0c2.87,0,3.48-0.01,3.47-0.03 C23.71,23.93,22.04,21.5,17.76,15.26z M19.32,22.49c-1.24,0.01-1.58,0-1.61-0.03c-0.02-0.02-1-1.42-2.18-3.11 C11.83,14.05,6.07,5.81,4.6,3.71c-0.77-1.1-1.43-2.04-1.45-2.08L3.1,1.56L4.7,1.57l1.59,0.01l3.18,4.55c1.75,2.5,5.03,7.2,7.3,10.45 l4.13,5.91L19.32,22.49z"></path></svg>